<?xml version="1.0" encoding="UTF-8" standalone="no"?>
<!DOCTYPE svg PUBLIC "-//W3C//DTD SVG 1.1//EN"
 "http://www.w3.org/Graphics/SVG/1.1/DTD/svg11.dtd">
<!-- Generated by graphviz version 7.1.0 (20230121.1956)
 -->
<!-- Pages: 1 -->
<svg width="794pt" height="486pt"
 viewBox="0.00 0.00 793.98 486.27" xmlns="http://www.w3.org/2000/svg" xmlns:xlink="http://www.w3.org/1999/xlink">
<g id="graph0" class="graph" transform="scale(1 1) rotate(0) translate(4 482.27)">
<polygon fill="white" stroke="none" points="-4,4 -4,-482.27 789.98,-482.27 789.98,4 -4,4"/>
<!-- laser_above -->
<g id="node1" class="node">
<title>laser_above</title>
<polygon fill="lightgray" stroke="black" points="582.75,-478.27 523.75,-478.27 523.75,-460.27 582.75,-460.27 582.75,-478.27"/>
<text text-anchor="middle" x="553.25" y="-467.07" font-family="Times New Roman,serif" font-size="9.00">laser_above</text>
</g>
<!-- left -->
<g id="node8" class="node">
<title>left</title>
<polygon fill="lightblue" stroke="black" points="429.75,-248.14 400.75,-248.14 400.75,-230.14 429.75,-230.14 429.75,-248.14"/>
<text text-anchor="middle" x="415.25" y="-236.94" font-family="Times New Roman,serif" font-size="9.00">left</text>
</g>
<!-- laser_above&#45;&gt;left -->
<g id="edge13" class="edge">
<title>laser_above&#45;&gt;left</title>
<path fill="none" stroke="red" stroke-width="0.47" d="M541.45,-460.04C517.02,-442.29 460.93,-397.79 434.25,-345.85 419.95,-318 416.23,-281.21 415.37,-259.18"/>
<polygon fill="red" stroke="red" stroke-width="0.47" points="418.87,-259.25 415.15,-249.33 411.87,-259.41 418.87,-259.25"/>
</g>
<!-- right -->
<g id="node9" class="node">
<title>right</title>
<polygon fill="lightblue" stroke="black" points="109.75,-248.14 76.75,-248.14 76.75,-230.14 109.75,-230.14 109.75,-248.14"/>
<text text-anchor="middle" x="93.25" y="-236.94" font-family="Times New Roman,serif" font-size="9.00">right</text>
</g>
<!-- laser_above&#45;&gt;right -->
<g id="edge14" class="edge">
<title>laser_above&#45;&gt;right</title>
<path fill="none" stroke="red" stroke-width="0.21" stroke-dasharray="1,5" d="M523.43,-466.3C419.32,-458.73 74.79,-427.77 9.25,-345.85 -4.49,-328.67 -1.11,-315.76 9.25,-296.35 21.34,-273.71 47.04,-258.59 66.85,-249.79"/>
<polygon fill="red" stroke="red" stroke-width="0.21" points="68.12,-253.05 76.01,-245.98 65.43,-246.59 68.12,-253.05"/>
</g>
<!-- 679 -->
<g id="node11" class="node">
<title>679</title>
<ellipse fill="white" stroke="black" cx="692.25" cy="-403.06" rx="21.43" ry="21.43"/>
<text text-anchor="middle" x="692.25" y="-400.86" font-family="Times New Roman,serif" font-size="9.00">679</text>
</g>
<!-- laser_above&#45;&gt;679 -->
<g id="edge25" class="edge">
<title>laser_above&#45;&gt;679</title>
<path fill="none" stroke="green" stroke-width="0.43" d="M571.42,-459.88C594.89,-449.04 635.98,-430.05 663.65,-417.27"/>
<polygon fill="green" stroke="green" stroke-width="0.43" points="664.98,-420.51 672.59,-413.14 662.04,-414.16 664.98,-420.51"/>
</g>
<!-- 152 -->
<g id="node18" class="node">
<title>152</title>
<ellipse fill="white" stroke="black" cx="692.25" cy="-239.14" rx="21.43" ry="21.43"/>
<text text-anchor="middle" x="692.25" y="-236.94" font-family="Times New Roman,serif" font-size="9.00">152</text>
</g>
<!-- laser_above&#45;&gt;152 -->
<g id="edge15" class="edge">
<title>laser_above&#45;&gt;152</title>
<path fill="none" stroke="green" stroke-width="0.95" stroke-dasharray="1,5" d="M583.24,-466.55C619.12,-463.19 679.67,-453.31 722.25,-424.27 757.85,-400 765.93,-386.83 779.25,-345.85 786.05,-324.93 789.77,-315.67 779.25,-296.35 767.35,-274.5 742.9,-259.84 722.94,-250.99"/>
<polygon fill="green" stroke="green" stroke-width="0.95" points="724.33,-247.78 713.75,-247.21 721.67,-254.25 724.33,-247.78"/>
</g>
<!-- norm_relative_enemy_y -->
<g id="node2" class="node">
<title>norm_relative_enemy_y</title>
<polygon fill="lightgray" stroke="black" points="387.25,-330.1 283.25,-330.1 283.25,-312.1 387.25,-312.1 387.25,-330.1"/>
<text text-anchor="middle" x="335.25" y="-318.9" font-family="Times New Roman,serif" font-size="9.00">norm_relative_enemy_y</text>
</g>
<!-- shoot -->
<g id="node7" class="node">
<title>shoot</title>
<polygon fill="lightblue" stroke="black" points="356.75,-87.75 319.75,-87.75 319.75,-69.75 356.75,-69.75 356.75,-87.75"/>
<text text-anchor="middle" x="338.25" y="-76.55" font-family="Times New Roman,serif" font-size="9.00">shoot</text>
</g>
<!-- norm_relative_enemy_y&#45;&gt;shoot -->
<g id="edge10" class="edge">
<title>norm_relative_enemy_y&#45;&gt;shoot</title>
<path fill="none" stroke="red" stroke-width="0.14" d="M335.35,-311.83C335.78,-277.67 337.41,-147.12 338.02,-98.31"/>
<polygon fill="red" stroke="red" stroke-width="0.14" points="341.52,-98.49 338.14,-88.45 334.52,-98.4 341.52,-98.49"/>
</g>
<!-- norm_relative_enemy_y&#45;&gt;left -->
<g id="edge11" class="edge">
<title>norm_relative_enemy_y&#45;&gt;left</title>
<path fill="none" stroke="red" stroke-width="1.32" stroke-dasharray="1,5" d="M343.51,-311.84C356.45,-298.91 381.74,-273.63 398.57,-256.81"/>
<polygon fill="red" stroke="red" stroke-width="1.32" points="400.9,-259.43 405.5,-249.88 395.96,-254.47 400.9,-259.43"/>
</g>
<!-- norm_relative_enemy_y&#45;&gt;right -->
<g id="edge12" class="edge">
<title>norm_relative_enemy_y&#45;&gt;right</title>
<path fill="none" stroke="green" stroke-width="0.16" stroke-dasharray="1,5" d="M314.14,-311.63C302.2,-306.94 286.97,-301.11 273.25,-296.35 219.21,-277.58 155.07,-258.24 119.8,-247.86"/>
<polygon fill="green" stroke="green" stroke-width="0.16" points="121.05,-244.58 110.47,-245.12 119.08,-251.29 121.05,-244.58"/>
</g>
<!-- 520 -->
<g id="node12" class="node">
<title>520</title>
<ellipse fill="white" stroke="black" cx="289.25" cy="-160.71" rx="21.43" ry="21.43"/>
<text text-anchor="middle" x="289.25" y="-158.51" font-family="Times New Roman,serif" font-size="9.00">520</text>
</g>
<!-- norm_relative_enemy_y&#45;&gt;520 -->
<g id="edge20" class="edge">
<title>norm_relative_enemy_y&#45;&gt;520</title>
<path fill="none" stroke="green" stroke-width="0.12" stroke-dasharray="1,5" d="M332.91,-312.03C326.52,-290.04 308.57,-228.24 297.78,-191.08"/>
<polygon fill="green" stroke="green" stroke-width="0.12" points="301.27,-190.55 295.12,-181.93 294.55,-192.51 301.27,-190.55"/>
</g>
<!-- 75 -->
<g id="node14" class="node">
<title>75</title>
<ellipse fill="white" stroke="black" cx="542.25" cy="-160.71" rx="18.27" ry="18.27"/>
<text text-anchor="middle" x="542.25" y="-158.51" font-family="Times New Roman,serif" font-size="9.00">75</text>
</g>
<!-- norm_relative_enemy_y&#45;&gt;75 -->
<g id="edge29" class="edge">
<title>norm_relative_enemy_y&#45;&gt;75</title>
<path fill="none" stroke="green" stroke-width="0.34" stroke-dasharray="1,5" d="M337.64,-311.66C343.51,-292.34 360.49,-244.52 391.25,-217.92 426.8,-187.19 480.73,-172.58 513.6,-166.17"/>
<polygon fill="green" stroke="green" stroke-width="0.34" points="514.16,-169.63 523.37,-164.4 512.9,-162.74 514.16,-169.63"/>
</g>
<!-- norm_relative_enemy_x -->
<g id="node3" class="node">
<title>norm_relative_enemy_x</title>
<polygon fill="lightgray" stroke="black" points="121.75,-330.1 18.75,-330.1 18.75,-312.1 121.75,-312.1 121.75,-330.1"/>
<text text-anchor="middle" x="70.25" y="-318.9" font-family="Times New Roman,serif" font-size="9.00">norm_relative_enemy_x</text>
</g>
<!-- norm_relative_enemy_x&#45;&gt;shoot -->
<g id="edge8" class="edge">
<title>norm_relative_enemy_x&#45;&gt;shoot</title>
<path fill="none" stroke="green" stroke-width="0.51" stroke-dasharray="1,5" d="M78.23,-311.83C103.68,-285.57 185.63,-202.15 259.25,-139.5 278.3,-123.29 301.2,-106.21 317.44,-94.48"/>
<polygon fill="green" stroke="green" stroke-width="0.51" points="319.42,-97.37 325.51,-88.7 315.34,-91.68 319.42,-97.37"/>
</g>
<!-- norm_relative_enemy_x&#45;&gt;right -->
<g id="edge9" class="edge">
<title>norm_relative_enemy_x&#45;&gt;right</title>
<path fill="none" stroke="green" stroke-width="2.05" d="M72.63,-311.84C76.05,-299.93 82.49,-277.54 87.27,-260.93"/>
<polygon fill="green" stroke="green" stroke-width="2.05" points="90.6,-262.03 90,-251.45 83.87,-260.1 90.6,-262.03"/>
</g>
<!-- norm_nearest_laser_relative_y -->
<g id="node4" class="node">
<title>norm_nearest_laser_relative_y</title>
<polygon fill="lightgray" stroke="black" points="570.75,-330.1 443.75,-330.1 443.75,-312.1 570.75,-312.1 570.75,-330.1"/>
<text text-anchor="middle" x="507.25" y="-318.9" font-family="Times New Roman,serif" font-size="9.00">norm_nearest_laser_relative_y</text>
</g>
<!-- norm_nearest_laser_relative_y&#45;&gt;shoot -->
<g id="edge6" class="edge">
<title>norm_nearest_laser_relative_y&#45;&gt;shoot</title>
<path fill="none" stroke="green" stroke-width="0.32" stroke-dasharray="1,5" d="M501.8,-311.83C490.25,-294.36 462.41,-252.48 438.25,-217.92 407.27,-173.62 369.61,-122.23 350.56,-96.39"/>
<polygon fill="green" stroke="green" stroke-width="0.32" points="353.48,-94.45 344.72,-88.48 347.85,-98.61 353.48,-94.45"/>
</g>
<!-- norm_nearest_laser_relative_y&#45;&gt;left -->
<g id="edge7" class="edge">
<title>norm_nearest_laser_relative_y&#45;&gt;left</title>
<path fill="none" stroke="green" stroke-width="0.45" d="M497.75,-311.84C482.46,-298.56 452.16,-272.22 432.85,-255.43"/>
<polygon fill="green" stroke="green" stroke-width="0.45" points="435.2,-252.84 425.36,-248.92 430.61,-258.12 435.2,-252.84"/>
</g>
<!-- norm_nearest_laser_relative_x -->
<g id="node5" class="node">
<title>norm_nearest_laser_relative_x</title>
<polygon fill="lightgray" stroke="black" points="264.75,-330.1 139.75,-330.1 139.75,-312.1 264.75,-312.1 264.75,-330.1"/>
<text text-anchor="middle" x="202.25" y="-318.9" font-family="Times New Roman,serif" font-size="9.00">norm_nearest_laser_relative_x</text>
</g>
<!-- norm_nearest_laser_relative_x&#45;&gt;left -->
<g id="edge4" class="edge">
<title>norm_nearest_laser_relative_x&#45;&gt;left</title>
<path fill="none" stroke="red" stroke-width="0.17" d="M224.64,-311.69C265,-296.54 349.6,-264.78 391.16,-249.18"/>
<polygon fill="red" stroke="red" stroke-width="0.17" points="392.15,-252.55 400.28,-245.76 389.69,-246 392.15,-252.55"/>
</g>
<!-- nothing -->
<g id="node10" class="node">
<title>nothing</title>
<polygon fill="lightblue" stroke="black" points="311.25,-18 267.25,-18 267.25,0 311.25,0 311.25,-18"/>
<text text-anchor="middle" x="289.25" y="-6.8" font-family="Times New Roman,serif" font-size="9.00">nothing</text>
</g>
<!-- norm_nearest_laser_relative_x&#45;&gt;nothing -->
<g id="edge5" class="edge">
<title>norm_nearest_laser_relative_x&#45;&gt;nothing</title>
<path fill="none" stroke="green" stroke-width="0.49" stroke-dasharray="1,5" d="M204.58,-311.8C216.13,-270.63 267.42,-87.81 284.04,-28.58"/>
<polygon fill="green" stroke="green" stroke-width="0.49" points="287.35,-29.75 286.68,-19.17 280.61,-27.86 287.35,-29.75"/>
</g>
<!-- 368 -->
<g id="node17" class="node">
<title>368</title>
<ellipse fill="white" stroke="black" cx="115.25" cy="-160.71" rx="21.43" ry="21.43"/>
<text text-anchor="middle" x="115.25" y="-158.51" font-family="Times New Roman,serif" font-size="9.00">368</text>
</g>
<!-- norm_nearest_laser_relative_x&#45;&gt;368 -->
<g id="edge17" class="edge">
<title>norm_nearest_laser_relative_x&#45;&gt;368</title>
<path fill="none" stroke="red" stroke-width="0.82" d="M197.82,-312.03C185.6,-289.78 151.01,-226.81 130.69,-189.81"/>
<polygon fill="red" stroke="red" stroke-width="0.82" points="133.84,-188.29 125.96,-181.21 127.71,-191.66 133.84,-188.29"/>
</g>
<!-- norm_cooldown -->
<g id="node6" class="node">
<title>norm_cooldown</title>
<polygon fill="lightgray" stroke="black" points="663.75,-330.1 588.75,-330.1 588.75,-312.1 663.75,-312.1 663.75,-330.1"/>
<text text-anchor="middle" x="626.25" y="-318.9" font-family="Times New Roman,serif" font-size="9.00">norm_cooldown</text>
</g>
<!-- norm_cooldown&#45;&gt;shoot -->
<g id="edge1" class="edge">
<title>norm_cooldown&#45;&gt;shoot</title>
<path fill="none" stroke="red" stroke-width="0.66" d="M614.52,-311.67C598.89,-300.35 570.52,-279.44 547.25,-260.35 484.73,-209.07 472.77,-191.97 411.25,-139.5 393.09,-124.01 371.95,-106.79 357.1,-94.83"/>
<polygon fill="red" stroke="red" stroke-width="0.66" points="359.52,-92.28 349.53,-88.75 355.14,-97.74 359.52,-92.28"/>
</g>
<!-- norm_cooldown&#45;&gt;left -->
<g id="edge2" class="edge">
<title>norm_cooldown&#45;&gt;left</title>
<path fill="none" stroke="green" stroke-width="0.65" d="M611.19,-311.6C602.34,-306.79 590.84,-300.86 580.25,-296.35 531.93,-275.78 473.3,-257.27 440.54,-247.47"/>
<polygon fill="green" stroke="green" stroke-width="0.65" points="441.61,-244.14 431.03,-244.66 439.63,-250.85 441.61,-244.14"/>
</g>
<!-- norm_cooldown&#45;&gt;nothing -->
<g id="edge3" class="edge">
<title>norm_cooldown&#45;&gt;nothing</title>
<path fill="none" stroke="red" stroke-width="0.41" d="M626.65,-311.6C627.92,-273.4 627.42,-116.68 538.25,-54 503.76,-29.76 380.89,-17.13 321.65,-12.33"/>
<polygon fill="red" stroke="red" stroke-width="0.41" points="322.22,-8.86 311.98,-11.57 321.67,-15.84 322.22,-8.86"/>
</g>
<!-- 714 -->
<g id="node13" class="node">
<title>714</title>
<ellipse fill="white" stroke="black" cx="577.25" cy="-239.14" rx="21.43" ry="21.43"/>
<text text-anchor="middle" x="577.25" y="-236.94" font-family="Times New Roman,serif" font-size="9.00">714</text>
</g>
<!-- norm_cooldown&#45;&gt;714 -->
<g id="edge27" class="edge">
<title>norm_cooldown&#45;&gt;714</title>
<path fill="none" stroke="red" stroke-width="1.47" d="M621.19,-311.84C614.91,-301.6 603.88,-283.6 594.44,-268.19"/>
<polygon fill="red" stroke="red" stroke-width="1.47" points="597.61,-266.66 589.4,-259.97 591.64,-270.32 597.61,-266.66"/>
</g>
<!-- norm_cooldown&#45;&gt;152 -->
<g id="edge19" class="edge">
<title>norm_cooldown&#45;&gt;152</title>
<path fill="none" stroke="red" stroke-width="0.37" d="M633.07,-311.84C642.26,-300.7 659.04,-280.37 672.39,-264.2"/>
<polygon fill="red" stroke="red" stroke-width="0.37" points="674.97,-266.57 678.64,-256.63 669.58,-262.11 674.97,-266.57"/>
</g>
<!-- right&#45;&gt;368 -->
<g id="edge24" class="edge">
<title>right&#45;&gt;368</title>
<path fill="none" stroke="green" stroke-width="0.38" stroke-dasharray="1,5" d="M95.69,-229.67C98.33,-220.5 102.69,-205.36 106.62,-191.69"/>
<polygon fill="green" stroke="green" stroke-width="0.38" points="109.95,-192.78 109.35,-182.2 103.22,-190.84 109.95,-192.78"/>
</g>
<!-- 4559 -->
<g id="node16" class="node">
<title>4559</title>
<ellipse fill="white" stroke="black" cx="745.25" cy="-321.1" rx="25" ry="25"/>
<text text-anchor="middle" x="745.25" y="-318.9" font-family="Times New Roman,serif" font-size="9.00">4559</text>
</g>
<!-- 679&#45;&gt;4559 -->
<g id="edge34" class="edge">
<title>679&#45;&gt;4559</title>
<path fill="none" stroke="green" stroke-width="0.41" d="M703.75,-384.71C710.24,-374.92 718.51,-362.44 725.96,-351.2"/>
<polygon fill="green" stroke="green" stroke-width="0.41" points="728.76,-353.32 731.37,-343.05 722.92,-349.45 728.76,-353.32"/>
</g>
<!-- 679&#45;&gt;152 -->
<g id="edge26" class="edge">
<title>679&#45;&gt;152</title>
<path fill="none" stroke="green" stroke-width="0.24" stroke-dasharray="1,5" d="M692.25,-381.22C692.25,-353.29 692.25,-303.48 692.25,-271.14"/>
<polygon fill="green" stroke="green" stroke-width="0.24" points="695.75,-271.25 692.25,-261.25 688.75,-271.25 695.75,-271.25"/>
</g>
<!-- 520&#45;&gt;shoot -->
<g id="edge31" class="edge">
<title>520&#45;&gt;shoot</title>
<path fill="none" stroke="red" stroke-width="0.2" stroke-dasharray="1,5" d="M300.13,-141.96C308.38,-128.49 319.67,-110.07 327.82,-96.77"/>
<polygon fill="red" stroke="red" stroke-width="0.2" points="330.71,-98.76 332.95,-88.41 324.74,-95.1 330.71,-98.76"/>
</g>
<!-- 520&#45;&gt;nothing -->
<g id="edge21" class="edge">
<title>520&#45;&gt;nothing</title>
<path fill="none" stroke="red" stroke-width="0.25" d="M289.25,-138.89C289.25,-109.52 289.25,-56.37 289.25,-28.38"/>
<polygon fill="red" stroke="red" stroke-width="0.25" points="292.75,-28.74 289.25,-18.74 285.75,-28.74 292.75,-28.74"/>
</g>
<!-- 714&#45;&gt;nothing -->
<g id="edge28" class="edge">
<title>714&#45;&gt;nothing</title>
<path fill="none" stroke="green" stroke-width="0.11" d="M579.1,-217.67C580.16,-197.12 579.63,-164.95 569.25,-139.5 550.61,-93.76 540.55,-79.51 498.25,-54 442.51,-20.39 364.95,-12.18 321.7,-10.35"/>
<polygon fill="green" stroke="green" stroke-width="0.11" points="322.01,-6.86 311.9,-10.02 321.78,-13.85 322.01,-6.86"/>
</g>
<!-- 714&#45;&gt;520 -->
<g id="edge30" class="edge">
<title>714&#45;&gt;520</title>
<path fill="none" stroke="green" stroke-width="0.17" d="M556.54,-232.64C506.53,-219.37 378.98,-185.52 320.01,-169.87"/>
<polygon fill="green" stroke="green" stroke-width="0.17" points="320.97,-166.51 310.41,-167.33 319.18,-173.27 320.97,-166.51"/>
</g>
<!-- 571 -->
<g id="node19" class="node">
<title>571</title>
<ellipse fill="white" stroke="black" cx="468.25" cy="-78.75" rx="21.43" ry="21.43"/>
<text text-anchor="middle" x="468.25" y="-76.55" font-family="Times New Roman,serif" font-size="9.00">571</text>
</g>
<!-- 75&#45;&gt;571 -->
<g id="edge22" class="edge">
<title>75&#45;&gt;571</title>
<path fill="none" stroke="green" stroke-width="0.61" d="M530.03,-146.51C519.12,-134.71 502.88,-117.17 489.79,-103.03"/>
<polygon fill="green" stroke="green" stroke-width="0.61" points="492.5,-100.8 483.14,-95.84 487.37,-105.56 492.5,-100.8"/>
</g>
<!-- 3291 -->
<g id="node15" class="node">
<title>3291</title>
<ellipse fill="white" stroke="black" cx="124.25" cy="-78.75" rx="25" ry="25"/>
<text text-anchor="middle" x="124.25" y="-76.55" font-family="Times New Roman,serif" font-size="9.00">3291</text>
</g>
<!-- 3291&#45;&gt;nothing -->
<g id="edge33" class="edge">
<title>3291&#45;&gt;nothing</title>
<path fill="none" stroke="red" stroke-width="0.41" stroke-dasharray="1,5" d="M147.1,-67.95C157.24,-63.63 169.32,-58.52 180.25,-54 206.46,-43.15 236.34,-31.12 258.18,-22.38"/>
<polygon fill="red" stroke="red" stroke-width="0.41" points="259.33,-25.68 267.32,-18.72 256.73,-19.18 259.33,-25.68"/>
</g>
<!-- 4559&#45;&gt;152 -->
<g id="edge35" class="edge">
<title>4559&#45;&gt;152</title>
<path fill="none" stroke="green" stroke-width="0.18" d="M731.88,-299.92C725.05,-289.63 716.68,-276.99 709.38,-265.99"/>
<polygon fill="green" stroke="green" stroke-width="0.18" points="712.42,-264.23 703.97,-257.82 706.58,-268.09 712.42,-264.23"/>
</g>
<!-- 368&#45;&gt;nothing -->
<g id="edge18" class="edge">
<title>368&#45;&gt;nothing</title>
<path fill="none" stroke="red" stroke-width="0.21" stroke-dasharray="1,5" d="M129.67,-144.6C150.24,-123.38 189.58,-83.98 226.25,-54 239.55,-43.13 255.41,-32.06 267.88,-23.75"/>
<polygon fill="red" stroke="red" stroke-width="0.21" points="269.59,-26.81 276.02,-18.4 265.75,-20.97 269.59,-26.81"/>
</g>
<!-- 368&#45;&gt;3291 -->
<g id="edge32" class="edge">
<title>368&#45;&gt;3291</title>
<path fill="none" stroke="red" stroke-width="0.27" d="M117.57,-139.12C118.43,-131.49 119.43,-122.61 120.39,-114.08"/>
<polygon fill="red" stroke="red" stroke-width="0.27" points="123.84,-114.71 121.48,-104.38 116.88,-113.92 123.84,-114.71"/>
</g>
<!-- 152&#45;&gt;75 -->
<g id="edge16" class="edge">
<title>152&#45;&gt;75</title>
<path fill="none" stroke="green" stroke-width="0.27" stroke-dasharray="1,5" d="M673.25,-228.46C646.36,-214.76 597.16,-189.69 567.31,-174.48"/>
<polygon fill="green" stroke="green" stroke-width="0.27" points="569.22,-171.52 558.72,-170.1 566.04,-177.76 569.22,-171.52"/>
</g>
<!-- 571&#45;&gt;nothing -->
<g id="edge23" class="edge">
<title>571&#45;&gt;nothing</title>
<path fill="none" stroke="red" stroke-width="0.38" stroke-dasharray="1,5" d="M448.41,-70.24C417.71,-58.62 358.39,-36.17 321.48,-22.2"/>
<polygon fill="red" stroke="red" stroke-width="0.38" points="322.84,-18.97 312.24,-18.7 320.36,-25.52 322.84,-18.97"/>
</g>
</g>
</svg>
