<?xml version="1.0" encoding="UTF-8" standalone="no"?>
<!DOCTYPE svg PUBLIC "-//W3C//DTD SVG 1.1//EN"
 "http://www.w3.org/Graphics/SVG/1.1/DTD/svg11.dtd">
<!-- Generated by graphviz version 7.1.0 (20230121.1956)
 -->
<!-- Pages: 1 -->
<svg width="789pt" height="446pt"
 viewBox="0.00 0.00 788.76 446.42" xmlns="http://www.w3.org/2000/svg" xmlns:xlink="http://www.w3.org/1999/xlink">
<g id="graph0" class="graph" transform="scale(1 1) rotate(0) translate(4 442.42)">
<polygon fill="white" stroke="none" points="-4,4 -4,-442.42 784.76,-442.42 784.76,4 -4,4"/>
<!-- laser_above -->
<g id="node1" class="node">
<title>laser_above</title>
<polygon fill="lightgray" stroke="black" points="284,-337.17 225,-337.17 225,-319.17 284,-319.17 284,-337.17"/>
<text text-anchor="middle" x="254.5" y="-325.97" font-family="Times New Roman,serif" font-size="9.00">laser_above</text>
</g>
<!-- left -->
<g id="node8" class="node">
<title>left</title>
<polygon fill="lightblue" stroke="black" points="272,-251.67 243,-251.67 243,-233.67 272,-233.67 272,-251.67"/>
<text text-anchor="middle" x="257.5" y="-240.47" font-family="Times New Roman,serif" font-size="9.00">left</text>
</g>
<!-- laser_above&#45;&gt;left -->
<g id="edge11" class="edge">
<title>laser_above&#45;&gt;left</title>
<path fill="none" stroke="red" stroke-width="0.38" stroke-dasharray="1,5" d="M254.8,-318.86C255.27,-305.79 256.19,-280.11 256.83,-262.43"/>
<polygon fill="red" stroke="red" stroke-width="0.38" points="260.32,-262.64 257.18,-252.52 253.33,-262.39 260.32,-262.64"/>
</g>
<!-- right -->
<g id="node9" class="node">
<title>right</title>
<polygon fill="lightblue" stroke="black" points="225,-251.67 192,-251.67 192,-233.67 225,-233.67 225,-251.67"/>
<text text-anchor="middle" x="208.5" y="-240.47" font-family="Times New Roman,serif" font-size="9.00">right</text>
</g>
<!-- laser_above&#45;&gt;right -->
<g id="edge12" class="edge">
<title>laser_above&#45;&gt;right</title>
<path fill="none" stroke="red" stroke-width="0.16" d="M249.92,-318.86C242.48,-305.35 227.62,-278.38 217.87,-260.68"/>
<polygon fill="red" stroke="red" stroke-width="0.16" points="221.07,-259.24 213.18,-252.17 214.94,-262.62 221.07,-259.24"/>
</g>
<!-- norm_relative_enemy_y -->
<g id="node2" class="node">
<title>norm_relative_enemy_y</title>
<polygon fill="lightgray" stroke="black" points="406.5,-337.17 302.5,-337.17 302.5,-319.17 406.5,-319.17 406.5,-337.17"/>
<text text-anchor="middle" x="354.5" y="-325.97" font-family="Times New Roman,serif" font-size="9.00">norm_relative_enemy_y</text>
</g>
<!-- shoot -->
<g id="node7" class="node">
<title>shoot</title>
<polygon fill="lightblue" stroke="black" points="357,-169.71 320,-169.71 320,-151.71 357,-151.71 357,-169.71"/>
<text text-anchor="middle" x="338.5" y="-158.51" font-family="Times New Roman,serif" font-size="9.00">shoot</text>
</g>
<!-- norm_relative_enemy_y&#45;&gt;shoot -->
<g id="edge8" class="edge">
<title>norm_relative_enemy_y&#45;&gt;shoot</title>
<path fill="none" stroke="red" stroke-width="0.68" stroke-dasharray="1,5" d="M348.67,-318.76C341.34,-307.61 329.16,-287.07 324.5,-267.42 317.4,-237.47 325.43,-201.82 331.93,-180.52"/>
<polygon fill="red" stroke="red" stroke-width="0.68" points="335.26,-181.62 335.05,-171.02 328.6,-179.44 335.26,-181.62"/>
</g>
<!-- norm_relative_enemy_y&#45;&gt;left -->
<g id="edge9" class="edge">
<title>norm_relative_enemy_y&#45;&gt;left</title>
<path fill="none" stroke="green" stroke-width="0.12" d="M344.84,-318.86C328.5,-304.79 295.18,-276.11 274.75,-258.52"/>
<polygon fill="green" stroke="green" stroke-width="0.12" points="277.12,-255.94 267.26,-252.07 272.55,-261.25 277.12,-255.94"/>
</g>
<!-- norm_relative_enemy_y&#45;&gt;right -->
<g id="edge10" class="edge">
<title>norm_relative_enemy_y&#45;&gt;right</title>
<path fill="none" stroke="red" stroke-width="0.29" d="M333.14,-318.68C308.35,-308.35 266.75,-289.53 234.5,-267.42 230.76,-264.85 227,-261.78 223.55,-258.71"/>
<polygon fill="red" stroke="red" stroke-width="0.29" points="226.2,-256.4 216.53,-252.08 221.4,-261.49 226.2,-256.4"/>
</g>
<!-- norm_relative_enemy_x -->
<g id="node3" class="node">
<title>norm_relative_enemy_x</title>
<polygon fill="lightgray" stroke="black" points="103,-422.67 0,-422.67 0,-404.67 103,-404.67 103,-422.67"/>
<text text-anchor="middle" x="51.5" y="-411.47" font-family="Times New Roman,serif" font-size="9.00">norm_relative_enemy_x</text>
</g>
<!-- norm_relative_enemy_x&#45;&gt;shoot -->
<g id="edge6" class="edge">
<title>norm_relative_enemy_x&#45;&gt;shoot</title>
<path fill="none" stroke="red" stroke-width="0.29" d="M48.68,-404.2C42.85,-385.12 31.29,-337.74 47.5,-303.42 95.49,-201.84 246.02,-172.49 309.65,-164.51"/>
<polygon fill="red" stroke="red" stroke-width="0.29" points="309.82,-168.01 319.35,-163.38 309.01,-161.06 309.82,-168.01"/>
</g>
<!-- norm_relative_enemy_x&#45;&gt;right -->
<g id="edge7" class="edge">
<title>norm_relative_enemy_x&#45;&gt;right</title>
<path fill="none" stroke="green" stroke-width="2.79" d="M50.47,-404.21C48.52,-384.33 46.44,-333.97 70.5,-303.42 97,-269.78 146.19,-254.72 178.12,-248.24"/>
<polygon fill="green" stroke="green" stroke-width="2.79" points="178.45,-251.74 187.67,-246.52 177.21,-244.85 178.45,-251.74"/>
</g>
<!-- 6165 -->
<g id="node16" class="node">
<title>6165</title>
<ellipse fill="white" stroke="black" cx="643.5" cy="-328.17" rx="25" ry="25"/>
<text text-anchor="middle" x="643.5" y="-325.97" font-family="Times New Roman,serif" font-size="9.00">6165</text>
</g>
<!-- norm_relative_enemy_x&#45;&gt;6165 -->
<g id="edge18" class="edge">
<title>norm_relative_enemy_x&#45;&gt;6165</title>
<path fill="none" stroke="green" stroke-width="0.26" stroke-dasharray="1,5" d="M68.92,-404.23C80.67,-398.93 96.68,-392.44 111.5,-388.92 284.29,-347.81 333.45,-376.44 509.5,-352.92 543.41,-348.39 581.82,-341.39 608.8,-336.16"/>
<polygon fill="green" stroke="green" stroke-width="0.26" points="609.38,-339.61 618.52,-334.25 608.03,-332.74 609.38,-339.61"/>
</g>
<!-- norm_nearest_laser_relative_y -->
<g id="node4" class="node">
<title>norm_nearest_laser_relative_y</title>
<polygon fill="lightgray" stroke="black" points="207,-337.17 80,-337.17 80,-319.17 207,-319.17 207,-337.17"/>
<text text-anchor="middle" x="143.5" y="-325.97" font-family="Times New Roman,serif" font-size="9.00">norm_nearest_laser_relative_y</text>
</g>
<!-- norm_nearest_laser_relative_y&#45;&gt;shoot -->
<g id="edge3" class="edge">
<title>norm_nearest_laser_relative_y&#45;&gt;shoot</title>
<path fill="none" stroke="red" stroke-width="0.36" stroke-dasharray="1,5" d="M144.11,-318.78C146.03,-298.61 153.64,-246.87 182.5,-217.92 217.07,-183.25 274.57,-169.84 309.27,-164.74"/>
<polygon fill="red" stroke="red" stroke-width="0.36" points="309.69,-168.21 319.14,-163.43 308.77,-161.27 309.69,-168.21"/>
</g>
<!-- norm_nearest_laser_relative_y&#45;&gt;left -->
<g id="edge4" class="edge">
<title>norm_nearest_laser_relative_y&#45;&gt;left</title>
<path fill="none" stroke="red" stroke-width="0.26" d="M158.37,-318.79C176.98,-307.99 209.45,-288.14 234.5,-267.42 237.51,-264.93 240.54,-262.09 243.37,-259.26"/>
<polygon fill="red" stroke="red" stroke-width="0.26" points="245.62,-261.98 249.98,-252.32 240.55,-257.15 245.62,-261.98"/>
</g>
<!-- norm_nearest_laser_relative_y&#45;&gt;right -->
<g id="edge5" class="edge">
<title>norm_nearest_laser_relative_y&#45;&gt;right</title>
<path fill="none" stroke="green" stroke-width="0.51" stroke-dasharray="1,5" d="M149.97,-318.86C160.58,-305.23 181.87,-277.88 195.64,-260.19"/>
<polygon fill="green" stroke="green" stroke-width="0.51" points="198.2,-262.6 201.58,-252.56 192.68,-258.3 198.2,-262.6"/>
</g>
<!-- norm_nearest_laser_relative_x -->
<g id="node5" class="node">
<title>norm_nearest_laser_relative_x</title>
<polygon fill="lightgray" stroke="black" points="514,-169.71 389,-169.71 389,-151.71 514,-151.71 514,-169.71"/>
<text text-anchor="middle" x="451.5" y="-158.51" font-family="Times New Roman,serif" font-size="9.00">norm_nearest_laser_relative_x</text>
</g>
<!-- 368 -->
<g id="node15" class="node">
<title>368</title>
<ellipse fill="white" stroke="black" cx="466.5" cy="-78.75" rx="21.43" ry="21.43"/>
<text text-anchor="middle" x="466.5" y="-76.55" font-family="Times New Roman,serif" font-size="9.00">368</text>
</g>
<!-- norm_nearest_laser_relative_x&#45;&gt;368 -->
<g id="edge13" class="edge">
<title>norm_nearest_laser_relative_x&#45;&gt;368</title>
<path fill="none" stroke="red" stroke-width="0.67" stroke-dasharray="1,5" d="M453.05,-151.45C454.84,-141.92 457.89,-125.65 460.63,-111.02"/>
<polygon fill="red" stroke="red" stroke-width="0.67" points="464.06,-111.76 462.46,-101.28 457.18,-110.47 464.06,-111.76"/>
</g>
<!-- 6814 -->
<g id="node21" class="node">
<title>6814</title>
<ellipse fill="white" stroke="black" cx="402.5" cy="-78.75" rx="25" ry="25"/>
<text text-anchor="middle" x="402.5" y="-76.55" font-family="Times New Roman,serif" font-size="9.00">6814</text>
</g>
<!-- norm_nearest_laser_relative_x&#45;&gt;6814 -->
<g id="edge23" class="edge">
<title>norm_nearest_laser_relative_x&#45;&gt;6814</title>
<path fill="none" stroke="red" stroke-width="0.2" stroke-dasharray="1,5" d="M446.44,-151.45C440.35,-141.51 429.78,-124.27 420.54,-109.19"/>
<polygon fill="red" stroke="red" stroke-width="0.2" points="423.66,-107.58 415.45,-100.88 417.69,-111.24 423.66,-107.58"/>
</g>
<!-- norm_cooldown -->
<g id="node6" class="node">
<title>norm_cooldown</title>
<polygon fill="lightgray" stroke="black" points="500,-337.17 425,-337.17 425,-319.17 500,-319.17 500,-337.17"/>
<text text-anchor="middle" x="462.5" y="-325.97" font-family="Times New Roman,serif" font-size="9.00">norm_cooldown</text>
</g>
<!-- norm_cooldown&#45;&gt;shoot -->
<g id="edge1" class="edge">
<title>norm_cooldown&#45;&gt;shoot</title>
<path fill="none" stroke="red" stroke-width="0.41" stroke-dasharray="1,5" d="M445.86,-318.7C417.73,-304.22 363.22,-275.51 357.5,-267.42 339.15,-241.48 336.81,-203.25 337.3,-180.57"/>
<polygon fill="red" stroke="red" stroke-width="0.41" points="340.79,-180.78 337.73,-170.63 333.8,-180.47 340.79,-180.78"/>
</g>
<!-- norm_cooldown&#45;&gt;left -->
<g id="edge2" class="edge">
<title>norm_cooldown&#45;&gt;left</title>
<path fill="none" stroke="green" stroke-width="1.24" d="M447.03,-318.83C437.96,-314.07 426.21,-308.14 415.5,-303.42 390.99,-292.63 321.05,-266.83 282.97,-252.93"/>
<polygon fill="green" stroke="green" stroke-width="1.24" points="284.62,-249.81 274.03,-249.67 282.22,-256.38 284.62,-249.81"/>
</g>
<!-- 6966 -->
<g id="node17" class="node">
<title>6966</title>
<ellipse fill="white" stroke="black" cx="391.5" cy="-242.67" rx="25" ry="25"/>
<text text-anchor="middle" x="391.5" y="-240.47" font-family="Times New Roman,serif" font-size="9.00">6966</text>
</g>
<!-- norm_cooldown&#45;&gt;6966 -->
<g id="edge27" class="edge">
<title>norm_cooldown&#45;&gt;6966</title>
<path fill="none" stroke="green" stroke-width="0.14" d="M455.43,-318.86C445.76,-307.48 427.96,-286.55 413.59,-269.66"/>
<polygon fill="green" stroke="green" stroke-width="0.14" points="416.56,-267.74 407.41,-262.39 411.22,-272.27 416.56,-267.74"/>
</g>
<!-- 6935 -->
<g id="node18" class="node">
<title>6935</title>
<ellipse fill="white" stroke="black" cx="458.5" cy="-242.67" rx="25" ry="25"/>
<text text-anchor="middle" x="458.5" y="-240.47" font-family="Times New Roman,serif" font-size="9.00">6935</text>
</g>
<!-- norm_cooldown&#45;&gt;6935 -->
<g id="edge24" class="edge">
<title>norm_cooldown&#45;&gt;6935</title>
<path fill="none" stroke="green" stroke-width="0.64" d="M462.1,-318.86C461.65,-309.46 460.89,-293.53 460.18,-278.75"/>
<polygon fill="green" stroke="green" stroke-width="0.64" points="463.68,-278.58 459.7,-268.76 456.68,-278.92 463.68,-278.58"/>
</g>
<!-- 152 -->
<g id="node19" class="node">
<title>152</title>
<ellipse fill="white" stroke="black" cx="611.5" cy="-160.71" rx="21.43" ry="21.43"/>
<text text-anchor="middle" x="611.5" y="-158.51" font-family="Times New Roman,serif" font-size="9.00">152</text>
</g>
<!-- norm_cooldown&#45;&gt;152 -->
<g id="edge15" class="edge">
<title>norm_cooldown&#45;&gt;152</title>
<path fill="none" stroke="green" stroke-width="0.49" d="M466.28,-318.71C475.28,-299.25 499.55,-250.46 530.5,-217.92 546.13,-201.5 567.27,-187.02 584.04,-176.87"/>
<polygon fill="green" stroke="green" stroke-width="0.49" points="585.35,-180.16 592.2,-172.07 581.8,-174.12 585.35,-180.16"/>
</g>
<!-- 520 -->
<g id="node13" class="node">
<title>520</title>
<ellipse fill="white" stroke="black" cx="338.5" cy="-78.75" rx="21.43" ry="21.43"/>
<text text-anchor="middle" x="338.5" y="-76.55" font-family="Times New Roman,serif" font-size="9.00">520</text>
</g>
<!-- shoot&#45;&gt;520 -->
<g id="edge20" class="edge">
<title>shoot&#45;&gt;520</title>
<path fill="none" stroke="red" stroke-width="0.45" d="M338.5,-151.45C338.5,-141.89 338.5,-125.55 338.5,-110.89"/>
<polygon fill="red" stroke="red" stroke-width="0.45" points="342,-111.31 338.5,-101.31 335,-111.31 342,-111.31"/>
</g>
<!-- right&#45;&gt;152 -->
<g id="edge17" class="edge">
<title>right&#45;&gt;152</title>
<path fill="none" stroke="green" stroke-width="0.63" d="M215.31,-233.2C220.08,-227.89 226.95,-221.41 234.5,-217.92 352.04,-163.72 396.04,-204.44 523.5,-181.92 542.49,-178.57 563.56,-173.77 580.32,-169.69"/>
<polygon fill="green" stroke="green" stroke-width="0.63" points="580.85,-173.16 589.72,-167.36 579.17,-166.37 580.85,-173.16"/>
</g>
<!-- nothing -->
<g id="node10" class="node">
<title>nothing</title>
<polygon fill="lightblue" stroke="black" points="424.5,-18 380.5,-18 380.5,0 424.5,0 424.5,-18"/>
<text text-anchor="middle" x="402.5" y="-6.8" font-family="Times New Roman,serif" font-size="9.00">nothing</text>
</g>
<!-- 7554 -->
<g id="node11" class="node">
<title>7554</title>
<ellipse fill="white" stroke="black" cx="564.5" cy="-242.67" rx="25" ry="25"/>
<text text-anchor="middle" x="564.5" y="-240.47" font-family="Times New Roman,serif" font-size="9.00">7554</text>
</g>
<!-- 7554&#45;&gt;shoot -->
<g id="edge32" class="edge">
<title>7554&#45;&gt;shoot</title>
<path fill="none" stroke="red" stroke-width="0.24" stroke-dasharray="1,5" d="M540.84,-233.82C526.8,-229.17 508.65,-223.18 492.5,-217.92 442.78,-201.73 429.06,-201.31 380.5,-181.92 375.05,-179.75 369.32,-177.18 363.9,-174.63"/>
<polygon fill="red" stroke="red" stroke-width="0.24" points="365.47,-171.5 354.94,-170.27 362.41,-177.79 365.47,-171.5"/>
</g>
<!-- 7207 -->
<g id="node12" class="node">
<title>7207</title>
<ellipse fill="white" stroke="black" cx="670.5" cy="-242.67" rx="25" ry="25"/>
<text text-anchor="middle" x="670.5" y="-240.47" font-family="Times New Roman,serif" font-size="9.00">7207</text>
</g>
<!-- 7207&#45;&gt;152 -->
<g id="edge30" class="edge">
<title>7207&#45;&gt;152</title>
<path fill="none" stroke="red" stroke-width="0.61" stroke-dasharray="1,5" d="M655.92,-221.91C648.16,-211.4 638.54,-198.36 630.24,-187.11"/>
<polygon fill="red" stroke="red" stroke-width="0.61" points="633.23,-185.26 624.47,-179.29 627.59,-189.42 633.23,-185.26"/>
</g>
<!-- 520&#45;&gt;nothing -->
<g id="edge16" class="edge">
<title>520&#45;&gt;nothing</title>
<path fill="none" stroke="red" stroke-width="0.44" d="M353.02,-62.38C363.25,-51.55 376.91,-37.09 387.29,-26.1"/>
<polygon fill="red" stroke="red" stroke-width="0.44" points="389.7,-28.65 394.02,-18.98 384.61,-23.84 389.7,-28.65"/>
</g>
<!-- 6799 -->
<g id="node14" class="node">
<title>6799</title>
<ellipse fill="white" stroke="black" cx="737.5" cy="-242.67" rx="25" ry="25"/>
<text text-anchor="middle" x="737.5" y="-240.47" font-family="Times New Roman,serif" font-size="9.00">6799</text>
</g>
<!-- 6799&#45;&gt;152 -->
<g id="edge22" class="edge">
<title>6799&#45;&gt;152</title>
<path fill="none" stroke="green" stroke-width="0.45" stroke-dasharray="1,5" d="M717.79,-227.09C713.45,-224 708.86,-220.8 704.5,-217.92 682.92,-203.67 657.78,-188.56 639.08,-177.6"/>
<polygon fill="green" stroke="green" stroke-width="0.45" points="640.94,-174.63 630.54,-172.62 637.42,-180.68 640.94,-174.63"/>
</g>
<!-- 368&#45;&gt;nothing -->
<g id="edge14" class="edge">
<title>368&#45;&gt;nothing</title>
<path fill="none" stroke="green" stroke-width="0.28" d="M451.98,-62.38C441.65,-51.44 427.82,-36.8 417.41,-25.78"/>
<polygon fill="green" stroke="green" stroke-width="0.28" points="420.23,-23.68 410.82,-18.81 415.15,-28.48 420.23,-23.68"/>
</g>
<!-- 6165&#45;&gt;shoot -->
<g id="edge26" class="edge">
<title>6165&#45;&gt;shoot</title>
<path fill="none" stroke="red" stroke-width="0.13" stroke-dasharray="1,5" d="M640.44,-303.1C635.89,-277.81 624.83,-238.86 598.5,-217.92 521.64,-156.8 474.14,-211.52 380.5,-181.92 374.32,-179.97 367.9,-177.26 361.99,-174.46"/>
<polygon fill="red" stroke="red" stroke-width="0.13" points="363.93,-171.52 353.42,-170.17 360.79,-177.78 363.93,-171.52"/>
</g>
<!-- 6165&#45;&gt;7554 -->
<g id="edge31" class="edge">
<title>6165&#45;&gt;7554</title>
<path fill="none" stroke="green" stroke-width="0.3" d="M626.75,-309.46C615.61,-297.7 600.83,-282.07 588.46,-269"/>
<polygon fill="green" stroke="green" stroke-width="0.3" points="591.23,-266.83 581.82,-261.98 586.15,-271.64 591.23,-266.83"/>
</g>
<!-- 6165&#45;&gt;7207 -->
<g id="edge29" class="edge">
<title>6165&#45;&gt;7207</title>
<path fill="none" stroke="green" stroke-width="0.18" d="M651.02,-303.91C653.77,-295.41 656.94,-285.62 659.9,-276.44"/>
<polygon fill="green" stroke="green" stroke-width="0.18" points="663.19,-277.66 662.93,-267.07 656.53,-275.51 663.19,-277.66"/>
</g>
<!-- 6165&#45;&gt;6799 -->
<g id="edge21" class="edge">
<title>6165&#45;&gt;6799</title>
<path fill="none" stroke="green" stroke-width="0.41" d="M661.62,-311.07C675.71,-298.56 695.44,-281.03 711.25,-266.99"/>
<polygon fill="green" stroke="green" stroke-width="0.41" points="713.5,-269.67 718.65,-260.41 708.85,-264.44 713.5,-269.67"/>
</g>
<!-- 6165&#45;&gt;152 -->
<g id="edge19" class="edge">
<title>6165&#45;&gt;152</title>
<path fill="none" stroke="red" stroke-width="0.3" d="M668.48,-323.59C698.85,-317.74 748.84,-303 771.5,-267.42 783.32,-248.87 784.22,-235.87 771.5,-217.92 742.4,-176.86 680.83,-165.57 643.12,-162.6"/>
<polygon fill="red" stroke="red" stroke-width="0.3" points="643.83,-159.14 633.63,-162 643.38,-166.13 643.83,-159.14"/>
</g>
<!-- 6966&#45;&gt;shoot -->
<g id="edge28" class="edge">
<title>6966&#45;&gt;shoot</title>
<path fill="none" stroke="red" stroke-width="0.63" stroke-dasharray="1,5" d="M378.13,-221.49C369.41,-208.35 358.17,-191.39 349.89,-178.89"/>
<polygon fill="red" stroke="red" stroke-width="0.63" points="352.96,-177.19 344.51,-170.78 347.12,-181.05 352.96,-177.19"/>
</g>
<!-- 6935&#45;&gt;152 -->
<g id="edge25" class="edge">
<title>6935&#45;&gt;152</title>
<path fill="none" stroke="red" stroke-width="0.39" d="M479.35,-228.51C485.16,-224.97 491.53,-221.21 497.5,-217.92 526.1,-202.21 559.69,-185.89 582.97,-174.91"/>
<polygon fill="red" stroke="red" stroke-width="0.39" points="584.18,-178.21 591.74,-170.8 581.2,-171.88 584.18,-178.21"/>
</g>
<!-- 4605 -->
<g id="node20" class="node">
<title>4605</title>
<ellipse fill="white" stroke="black" cx="145.5" cy="-413.67" rx="25" ry="25"/>
<text text-anchor="middle" x="145.5" y="-411.47" font-family="Times New Roman,serif" font-size="9.00">4605</text>
</g>
</g>
</svg>
