<?xml version="1.0" encoding="UTF-8" standalone="no"?>
<!DOCTYPE svg PUBLIC "-//W3C//DTD SVG 1.1//EN"
 "http://www.w3.org/Graphics/SVG/1.1/DTD/svg11.dtd">
<!-- Generated by graphviz version 7.1.0 (20230121.1956)
 -->
<!-- Pages: 1 -->
<svg width="720pt" height="203pt"
 viewBox="0.00 0.00 720.37 202.65" xmlns="http://www.w3.org/2000/svg" xmlns:xlink="http://www.w3.org/1999/xlink">
<g id="graph0" class="graph" transform="scale(1 1) rotate(0) translate(4 198.65)">
<polygon fill="white" stroke="none" points="-4,4 -4,-198.65 716.37,-198.65 716.37,4 -4,4"/>
<!-- norm_cooldown -->
<g id="node1" class="node">
<title>norm_cooldown</title>
<polygon fill="lightgray" stroke="black" points="311.43,-128.44 236.43,-128.44 236.43,-110.44 311.43,-110.44 311.43,-128.44"/>
<text text-anchor="middle" x="273.93" y="-117.24" font-family="Times New Roman,serif" font-size="9.00">norm_cooldown</text>
</g>
<!-- shoot -->
<g id="node7" class="node">
<title>shoot</title>
<ellipse fill="lightblue" stroke="black" cx="299.93" cy="-31.11" rx="26.33" ry="26.33"/>
<text text-anchor="middle" x="299.93" y="-28.91" font-family="Times New Roman,serif" font-size="9.00">shoot</text>
</g>
<!-- norm_cooldown&#45;&gt;shoot -->
<g id="edge1" class="edge">
<title>norm_cooldown&#45;&gt;shoot</title>
<path fill="none" stroke="red" stroke-width="0.7" d="M276.42,-110.16C279.4,-100.29 284.56,-83.14 289.29,-67.42"/>
<polygon fill="red" stroke="red" stroke-width="0.7" points="292.63,-68.48 292.16,-57.9 285.93,-66.46 292.63,-68.48"/>
</g>
<!-- left -->
<g id="node8" class="node">
<title>left</title>
<ellipse fill="lightblue" stroke="black" cx="411.93" cy="-31.11" rx="20.51" ry="20.51"/>
<text text-anchor="middle" x="411.93" y="-28.91" font-family="Times New Roman,serif" font-size="9.00">left</text>
</g>
<!-- norm_cooldown&#45;&gt;left -->
<g id="edge2" class="edge">
<title>norm_cooldown&#45;&gt;left</title>
<path fill="none" stroke="green" stroke-width="0.36" d="M287.41,-110C310.18,-95.76 356.61,-66.72 385.9,-48.4"/>
<polygon fill="green" stroke="green" stroke-width="0.36" points="387.66,-51.42 394.29,-43.15 383.95,-45.49 387.66,-51.42"/>
</g>
<!-- right -->
<g id="node9" class="node">
<title>right</title>
<ellipse fill="lightblue" stroke="black" cx="232.93" cy="-31.11" rx="23.17" ry="23.17"/>
<text text-anchor="middle" x="232.93" y="-28.91" font-family="Times New Roman,serif" font-size="9.00">right</text>
</g>
<!-- norm_cooldown&#45;&gt;right -->
<g id="edge3" class="edge">
<title>norm_cooldown&#45;&gt;right</title>
<path fill="none" stroke="green" stroke-width="0.22" stroke-dasharray="1,5" d="M270,-110.16C264.72,-99.05 255.07,-78.73 246.94,-61.61"/>
<polygon fill="green" stroke="green" stroke-width="0.22" points="250.21,-60.34 242.76,-52.81 243.89,-63.35 250.21,-60.34"/>
</g>
<!-- nothing -->
<g id="node10" class="node">
<title>nothing</title>
<ellipse fill="lightblue" stroke="black" cx="501.93" cy="-31.11" rx="31.23" ry="31.23"/>
<text text-anchor="middle" x="501.93" y="-28.91" font-family="Times New Roman,serif" font-size="9.00">nothing</text>
</g>
<!-- norm_cooldown&#45;&gt;nothing -->
<g id="edge4" class="edge">
<title>norm_cooldown&#45;&gt;nothing</title>
<path fill="none" stroke="red" stroke-width="0.51" stroke-dasharray="1,5" d="M292.03,-110.06C300.68,-106.22 311.24,-101.74 320.93,-98.23 373.68,-79.11 389.76,-82.89 441.93,-62.23 449.54,-59.21 457.49,-55.58 465.02,-51.91"/>
<polygon fill="red" stroke="red" stroke-width="0.51" points="466.55,-55.06 473.92,-47.44 463.41,-48.8 466.55,-55.06"/>
</g>
<!-- norm_nearest_laser_relative_x -->
<g id="node2" class="node">
<title>norm_nearest_laser_relative_x</title>
<polygon fill="lightgray" stroke="black" points="454.43,-128.44 329.43,-128.44 329.43,-110.44 454.43,-110.44 454.43,-128.44"/>
<text text-anchor="middle" x="391.93" y="-117.24" font-family="Times New Roman,serif" font-size="9.00">norm_nearest_laser_relative_x</text>
</g>
<!-- norm_nearest_laser_relative_x&#45;&gt;shoot -->
<g id="edge5" class="edge">
<title>norm_nearest_laser_relative_x&#45;&gt;shoot</title>
<path fill="none" stroke="green" stroke-width="0.71" stroke-dasharray="1,5" d="M383.11,-110.16C370.26,-98.1 345.85,-75.2 326.78,-57.31"/>
<polygon fill="green" stroke="green" stroke-width="0.71" points="329.2,-54.77 319.51,-50.48 324.41,-59.88 329.2,-54.77"/>
</g>
<!-- norm_nearest_laser_relative_x&#45;&gt;left -->
<g id="edge6" class="edge">
<title>norm_nearest_laser_relative_x&#45;&gt;left</title>
<path fill="none" stroke="green" stroke-width="0.15" stroke-dasharray="1,5" d="M393.85,-110.16C396.45,-98.94 401.22,-78.33 405.21,-61.11"/>
<polygon fill="green" stroke="green" stroke-width="0.15" points="408.55,-62.21 407.4,-51.68 401.73,-60.63 408.55,-62.21"/>
</g>
<!-- norm_nearest_laser_relative_x&#45;&gt;right -->
<g id="edge7" class="edge">
<title>norm_nearest_laser_relative_x&#45;&gt;right</title>
<path fill="none" stroke="green" stroke-width="0.43" stroke-dasharray="1,5" d="M366.3,-110C339.69,-100.6 297.48,-83.82 264.93,-62.23 261.91,-60.22 258.92,-57.93 256.04,-55.52"/>
<polygon fill="green" stroke="green" stroke-width="0.43" points="258.56,-53.09 248.78,-49.01 253.89,-58.3 258.56,-53.09"/>
</g>
<!-- norm_nearest_laser_relative_x&#45;&gt;nothing -->
<g id="edge8" class="edge">
<title>norm_nearest_laser_relative_x&#45;&gt;nothing</title>
<path fill="none" stroke="green" stroke-width="0.38" d="M402.48,-110.16C417.8,-98.13 446.88,-75.31 469.65,-57.44"/>
<polygon fill="green" stroke="green" stroke-width="0.38" points="471.56,-60.39 477.27,-51.47 467.24,-54.89 471.56,-60.39"/>
</g>
<!-- norm_nearest_laser_relative_y -->
<g id="node3" class="node">
<title>norm_nearest_laser_relative_y</title>
<polygon fill="lightgray" stroke="black" points="150.43,-194.65 23.43,-194.65 23.43,-176.65 150.43,-176.65 150.43,-194.65"/>
<text text-anchor="middle" x="86.93" y="-183.45" font-family="Times New Roman,serif" font-size="9.00">norm_nearest_laser_relative_y</text>
</g>
<!-- norm_nearest_laser_relative_y&#45;&gt;shoot -->
<g id="edge9" class="edge">
<title>norm_nearest_laser_relative_y&#45;&gt;shoot</title>
<path fill="none" stroke="green" stroke-width="0.52" stroke-dasharray="1,5" d="M86.07,-176.15C84.84,-158.9 84.7,-119.58 105.93,-98.23 157,-46.83 200.22,-94.82 264.93,-62.23 267.84,-60.76 270.71,-59 273.48,-57.07"/>
<polygon fill="green" stroke="green" stroke-width="0.52" points="275.53,-59.91 281.28,-51.01 271.24,-54.38 275.53,-59.91"/>
</g>
<!-- norm_nearest_laser_relative_y&#45;&gt;left -->
<g id="edge10" class="edge">
<title>norm_nearest_laser_relative_y&#45;&gt;left</title>
<path fill="none" stroke="green" stroke-width="0.3" stroke-dasharray="1,5" d="M150.75,-183.12C269.61,-179.61 515.21,-168.98 540.93,-140.65 553.6,-126.69 551.13,-114.08 540.93,-98.23 520.05,-65.77 496.07,-80.21 461.93,-62.23 453.9,-57.99 445.36,-53.04 437.66,-48.38"/>
<polygon fill="green" stroke="green" stroke-width="0.3" points="439.52,-45.41 429.17,-43.16 435.85,-51.38 439.52,-45.41"/>
</g>
<!-- norm_nearest_laser_relative_y&#45;&gt;right -->
<g id="edge11" class="edge">
<title>norm_nearest_laser_relative_y&#45;&gt;right</title>
<path fill="none" stroke="red" stroke-width="0.22" d="M56.67,-176.26C39.1,-169.66 18.43,-158.52 7.93,-140.65 -1.63,-124.4 -3.37,-113.32 7.93,-98.23 31.07,-67.31 143.45,-45.91 200.12,-36.9"/>
<polygon fill="red" stroke="red" stroke-width="0.22" points="200.34,-40.41 209.69,-35.41 199.27,-33.49 200.34,-40.41"/>
</g>
<!-- norm_nearest_laser_relative_y&#45;&gt;nothing -->
<g id="edge12" class="edge">
<title>norm_nearest_laser_relative_y&#45;&gt;nothing</title>
<path fill="none" stroke="red" stroke-width="0.55" d="M150.78,-184.88C300.44,-184.75 664.02,-180.3 700.93,-140.65 752.19,-85.58 615.9,-52.23 543.6,-38.87"/>
<polygon fill="red" stroke="red" stroke-width="0.55" points="544.28,-35.44 533.82,-37.12 543.04,-42.33 544.28,-35.44"/>
</g>
<!-- 605 -->
<g id="node11" class="node">
<title>605</title>
<ellipse fill="white" stroke="black" cx="37.93" cy="-119.44" rx="21.43" ry="21.43"/>
<text text-anchor="middle" x="37.93" y="-117.24" font-family="Times New Roman,serif" font-size="9.00">605</text>
</g>
<!-- norm_nearest_laser_relative_y&#45;&gt;605 -->
<g id="edge23" class="edge">
<title>norm_nearest_laser_relative_y&#45;&gt;605</title>
<path fill="none" stroke="green" stroke-width="0.3" d="M80.52,-176.26C74.49,-168.35 65.14,-156.1 56.74,-145.09"/>
<polygon fill="green" stroke="green" stroke-width="0.3" points="59.69,-143.19 50.84,-137.36 54.13,-147.44 59.69,-143.19"/>
</g>
<!-- norm_relative_enemy_x -->
<g id="node4" class="node">
<title>norm_relative_enemy_x</title>
<polygon fill="lightgray" stroke="black" points="218.43,-128.44 115.43,-128.44 115.43,-110.44 218.43,-110.44 218.43,-128.44"/>
<text text-anchor="middle" x="166.93" y="-117.24" font-family="Times New Roman,serif" font-size="9.00">norm_relative_enemy_x</text>
</g>
<!-- norm_relative_enemy_x&#45;&gt;shoot -->
<g id="edge13" class="edge">
<title>norm_relative_enemy_x&#45;&gt;shoot</title>
<path fill="none" stroke="red" stroke-width="0.16" stroke-dasharray="1,5" d="M183.81,-110.01C203.83,-99.73 237.87,-81.37 264.93,-62.23 267.61,-60.33 270.33,-58.27 273.01,-56.14"/>
<polygon fill="red" stroke="red" stroke-width="0.16" points="275.17,-58.9 280.65,-49.83 270.71,-53.5 275.17,-58.9"/>
</g>
<!-- norm_relative_enemy_x&#45;&gt;left -->
<g id="edge14" class="edge">
<title>norm_relative_enemy_x&#45;&gt;left</title>
<path fill="none" stroke="red" stroke-width="0.55" d="M192.28,-110.04C235.76,-95.61 321.23,-67.19 334.93,-62.23 351,-56.4 368.78,-49.48 383.21,-43.74"/>
<polygon fill="red" stroke="red" stroke-width="0.55" points="384.28,-47.08 392.26,-40.11 381.68,-40.58 384.28,-47.08"/>
</g>
<!-- norm_relative_enemy_x&#45;&gt;right -->
<g id="edge15" class="edge">
<title>norm_relative_enemy_x&#45;&gt;right</title>
<path fill="none" stroke="green" stroke-width="0.29" stroke-dasharray="1,5" d="M173.26,-110.16C182.3,-98.34 199.31,-76.09 212.86,-58.36"/>
<polygon fill="green" stroke="green" stroke-width="0.29" points="215.63,-60.5 218.92,-50.43 210.07,-56.25 215.63,-60.5"/>
</g>
<!-- norm_relative_enemy_y -->
<g id="node5" class="node">
<title>norm_relative_enemy_y</title>
<polygon fill="lightgray" stroke="black" points="691.93,-128.44 587.93,-128.44 587.93,-110.44 691.93,-110.44 691.93,-128.44"/>
<text text-anchor="middle" x="639.93" y="-117.24" font-family="Times New Roman,serif" font-size="9.00">norm_relative_enemy_y</text>
</g>
<!-- norm_relative_enemy_y&#45;&gt;shoot -->
<g id="edge16" class="edge">
<title>norm_relative_enemy_y&#45;&gt;shoot</title>
<path fill="none" stroke="green" stroke-width="0.16" d="M599.64,-109.98C532.4,-95.81 402.64,-68.25 381.93,-62.23 365.8,-57.53 348.28,-51.26 333.59,-45.66"/>
<polygon fill="green" stroke="green" stroke-width="0.16" points="335.21,-42.54 324.62,-42.19 332.68,-49.06 335.21,-42.54"/>
</g>
<!-- norm_relative_enemy_y&#45;&gt;left -->
<g id="edge17" class="edge">
<title>norm_relative_enemy_y&#45;&gt;left</title>
<path fill="none" stroke="green" stroke-width="0.28" stroke-dasharray="1,5" d="M612.69,-110.02C564.59,-95.13 468.98,-65.41 461.93,-62.23 453.56,-58.45 444.86,-53.58 437.1,-48.86"/>
<polygon fill="green" stroke="green" stroke-width="0.28" points="439.2,-46.04 428.87,-43.68 435.48,-51.97 439.2,-46.04"/>
</g>
<!-- norm_relative_enemy_y&#45;&gt;nothing -->
<g id="edge18" class="edge">
<title>norm_relative_enemy_y&#45;&gt;nothing</title>
<path fill="none" stroke="green" stroke-width="0.43" d="M626.45,-110C605.94,-97.18 566.25,-72.35 537.17,-54.16"/>
<polygon fill="green" stroke="green" stroke-width="0.43" points="539.03,-51.19 528.69,-48.85 535.31,-57.13 539.03,-51.19"/>
</g>
<!-- laser_above -->
<g id="node6" class="node">
<title>laser_above</title>
<polygon fill="lightgray" stroke="black" points="531.43,-128.44 472.43,-128.44 472.43,-110.44 531.43,-110.44 531.43,-128.44"/>
<text text-anchor="middle" x="501.93" y="-117.24" font-family="Times New Roman,serif" font-size="9.00">laser_above</text>
</g>
<!-- laser_above&#45;&gt;shoot -->
<g id="edge19" class="edge">
<title>laser_above&#45;&gt;shoot</title>
<path fill="none" stroke="green" stroke-width="0.6" stroke-dasharray="1,5" d="M486.95,-110C480.03,-106.23 471.65,-101.82 463.93,-98.23 420.24,-77.87 368.45,-57.61 334.93,-44.99"/>
<polygon fill="green" stroke="green" stroke-width="0.6" points="336.17,-41.72 325.58,-41.49 333.72,-48.28 336.17,-41.72"/>
</g>
<!-- laser_above&#45;&gt;left -->
<g id="edge20" class="edge">
<title>laser_above&#45;&gt;left</title>
<path fill="none" stroke="green" stroke-width="0.5" d="M493.3,-110.16C479.75,-97.16 453.05,-71.56 433.93,-53.22"/>
<polygon fill="green" stroke="green" stroke-width="0.5" points="436.45,-50.78 426.81,-46.39 431.6,-55.83 436.45,-50.78"/>
</g>
<!-- laser_above&#45;&gt;right -->
<g id="edge21" class="edge">
<title>laser_above&#45;&gt;right</title>
<path fill="none" stroke="green" stroke-width="0.41" d="M488.67,-110.08C481.58,-105.94 472.54,-101.21 463.93,-98.23 379.01,-68.77 345.18,-102.69 264.93,-62.23 261.7,-60.6 258.56,-58.54 255.61,-56.26"/>
<polygon fill="green" stroke="green" stroke-width="0.41" points="258.1,-53.79 248.26,-49.87 253.51,-59.08 258.1,-53.79"/>
</g>
<!-- laser_above&#45;&gt;nothing -->
<g id="edge22" class="edge">
<title>laser_above&#45;&gt;nothing</title>
<path fill="none" stroke="green" stroke-width="0.17" stroke-dasharray="1,5" d="M501.93,-110.16C501.93,-101.4 501.93,-86.91 501.93,-72.78"/>
<polygon fill="green" stroke="green" stroke-width="0.17" points="505.43,-72.9 501.93,-62.9 498.43,-72.9 505.43,-72.9"/>
</g>
<!-- 605&#45;&gt;shoot -->
<g id="edge24" class="edge">
<title>605&#45;&gt;shoot</title>
<path fill="none" stroke="green" stroke-width="0.71" d="M55.52,-106.73C60.92,-103.57 67.01,-100.42 72.93,-98.23 154.35,-68.09 186.67,-99.83 264.93,-62.23 267.77,-60.86 270.57,-59.2 273.27,-57.37"/>
<polygon fill="green" stroke="green" stroke-width="0.71" points="275.33,-60.2 281.12,-51.34 271.06,-54.65 275.33,-60.2"/>
</g>
</g>
</svg>
